<svg width="356" height="356" viewBox="0 0 356 356" fill="none" xmlns="http://www.w3.org/2000/svg">
<mask id="mask0_1515_1254" style="mask-type:luminance" maskUnits="userSpaceOnUse" x="0" y="0" width="356" height="356">
<path d="M0 355.801H355.801V-0.000213623H0V355.801Z" fill="white"/>
</mask>
<g mask="url(#mask0_1515_1254)">
<path d="M105.948 149.958C105.948 110.285 138.224 78.0078 177.897 78.0078C217.571 78.0078 249.847 110.285 249.847 149.958V191.546H250.231V149.958C250.231 110.073 217.782 77.6248 177.897 77.6248C138.013 77.6248 105.564 110.073 105.564 149.958V195.257H105.948V149.958Z" fill="white"/>
<path d="M111.947 215.753V271.429L243.657 271.738H243.848V209.839H243.465V271.354L112.33 271.045V215.753H111.947Z" fill="white"/>
<path d="M243.848 191.77V150.015C243.848 113.65 214.263 84.0643 177.897 84.0643C141.531 84.0643 111.947 113.65 111.947 150.015V194.569H112.33V150.015C112.33 113.861 141.744 84.4473 177.897 84.4473C214.05 84.4473 243.464 113.861 243.464 150.015V191.77H243.848Z" fill="white"/>
<path d="M238.121 193.932V150.842C238.121 117.636 211.106 90.6205 177.899 90.6205C144.692 90.6205 117.678 117.636 117.678 150.842V199.229H118.061V150.842C118.061 117.847 144.905 91.0045 177.899 91.0045C210.894 91.0045 237.738 117.847 237.738 150.842V193.932H238.121Z" fill="white"/>
<path d="M117.676 212.993V265.18H238.119V211.034H237.736V264.796H118.059V212.993H117.676Z" fill="white"/>
<path d="M9.65253 210.514C9.30353 211.524 8.72053 212.533 8.83753 213.621C8.83753 213.543 8.95353 213.543 8.95353 213.465L9.76953 210.824C9.76953 210.67 9.76953 210.514 9.88553 210.359C9.76953 210.437 9.65253 210.437 9.65253 210.514Z" fill="white"/>
<path d="M9.88458 210.359V210.204C9.88458 210.282 9.76758 210.282 9.76758 210.359H9.88458Z" fill="white"/>
<path d="M9.88598 209.893C9.76898 209.971 9.88598 210.126 9.88598 210.204C10.236 209.738 10.468 209.194 10.701 208.729C10.935 208.34 10.935 208.029 11.167 207.719C10.935 207.796 10.818 207.874 10.701 207.952C10.468 208.651 10.119 209.272 9.88598 209.893Z" fill="white"/>
<path d="M11.1658 207.719V207.563L11.0488 207.641L11.1658 207.719Z" fill="white"/>
<path d="M125.521 205.338H125.271V205.504C125.396 205.504 125.521 205.421 125.521 205.338Z" fill="white"/>
<path d="M126.9 201.997H127.151V201.83C127.025 201.914 126.9 201.914 126.9 201.997Z" fill="white"/>
<path d="M123.643 203.5H124.019V203.25L123.643 203.5Z" fill="white"/>
<path d="M128.027 201.412H128.403V201.162L128.027 201.412Z" fill="white"/>
<path d="M121.262 204.753H121.513V204.502C121.387 204.586 121.262 204.67 121.262 204.753Z" fill="white"/>
<path d="M122.514 204.085H122.764V203.918C122.64 204.001 122.514 204.001 122.514 204.085Z" fill="white"/>
<path d="M128.529 201.162H129.03V200.995C128.905 200.995 128.654 200.995 128.529 201.078V201.162Z" fill="white"/>
<path d="M130.408 200.242C130.408 200.242 130.408 200.326 130.283 200.326H130.909V200.159C130.784 200.159 130.533 200.159 130.408 200.242Z" fill="white"/>
<path d="M114.871 207.844H115.498V207.677C115.372 207.761 115.122 207.761 114.871 207.844Z" fill="white"/>
<path d="M113.367 208.68H113.994V208.513C113.743 208.597 113.492 208.597 113.367 208.68Z" fill="white"/>
<path d="M114.246 208.262H114.622V208.095C114.496 208.095 114.371 208.178 114.246 208.262Z" fill="white"/>
<path d="M113.994 208.513H114.245V208.262C114.245 208.346 114.119 208.43 113.994 208.513Z" fill="white"/>
<path d="M120.01 205.338H120.261V205.171C120.135 205.171 120.01 205.254 120.01 205.338Z" fill="white"/>
<path d="M112.742 209.097H112.993V208.93C112.993 209.014 112.867 209.014 112.742 209.097Z" fill="white"/>
<path d="M115.498 207.677H115.873V207.427L115.498 207.677Z" fill="white"/>
<path d="M118.379 206.424V206.173C118.129 206.257 117.878 206.34 117.752 206.424H118.379Z" fill="white"/>
<path d="M203.227 201.92V201.753C203.102 201.837 203.102 201.92 202.977 201.92H203.227Z" fill="white"/>
<path d="M234.676 200.167H234.426V200.25C234.551 200.25 234.551 200.167 234.676 200.167Z" fill="white"/>
<path d="M208.99 200.25C209.115 200.25 209.24 200.167 209.24 200.167H208.99V200.25Z" fill="white"/>
<path d="M232.547 201.586C232.547 201.503 232.672 201.503 232.797 201.419C232.672 201.419 232.547 201.503 232.547 201.586Z" fill="white"/>
<path d="M232.421 201.586C231.544 202.088 230.792 202.589 230.041 203.174C231.168 202.839 231.92 202.255 232.421 201.586Z" fill="white"/>
<path d="M234.426 200.333H234.176V200.5C234.176 200.417 234.301 200.333 234.426 200.333Z" fill="white"/>
<path d="M234.676 200.083C234.802 200.083 234.802 200 234.927 199.916H234.676V200.083Z" fill="white"/>
<path d="M232.797 201.336C233.423 201.169 233.799 200.918 234.176 200.5H233.925L232.797 201.336Z" fill="white"/>
<path d="M205.857 199.665C205.732 199.748 205.732 199.832 205.732 199.916H205.983V199.581L205.857 199.665Z" fill="white"/>
<path d="M205.984 199.581C206.109 199.497 206.234 199.497 206.234 199.414H206.109C205.984 199.497 205.984 199.497 205.984 199.581Z" fill="white"/>
<path d="M216.633 190.81C216.758 190.727 216.758 190.727 216.884 190.727C216.758 190.727 216.758 190.727 216.633 190.644V190.81Z" fill="white"/>
<path d="M214.129 194.737C214.129 194.653 214.254 194.653 214.254 194.569C214.129 194.653 214.129 194.653 214.129 194.737Z" fill="white"/>
<path d="M205.232 200.333H205.483V200.167C205.357 200.167 205.232 200.25 205.232 200.333Z" fill="white"/>
<path d="M220.268 195.572H220.143C220.143 195.656 220.143 195.823 220.268 195.906V195.572Z" fill="white"/>
<path d="M216.758 201.001H216.633V201.085C216.633 201.085 216.633 201.001 216.758 201.001Z" fill="white"/>
<path d="M230.04 203.174C229.914 203.258 229.789 203.341 229.789 203.425C229.914 203.341 229.914 203.258 230.04 203.258V203.174Z" fill="white"/>
<path d="M287.553 162.659H287.929C287.804 162.576 287.678 162.576 287.553 162.659Z" fill="white"/>
<path d="M269.636 188.388H269.385H269.26C269.385 188.471 269.385 188.637 269.385 188.721C269.511 188.637 269.511 188.471 269.636 188.388Z" fill="white"/>
<path d="M265.877 195.07C265.752 194.904 265.752 194.737 265.752 194.653V195.07H265.877Z" fill="white"/>
<path d="M246.707 202.171H246.958V202.004C246.832 202.004 246.707 202.087 246.707 202.171Z" fill="white"/>
<path d="M253.598 199.916V200.083C253.723 200 253.849 199.916 253.849 199.916H253.598Z" fill="white"/>
<path d="M257.357 196.156H257.733C257.607 196.072 257.482 196.072 257.357 196.156Z" fill="white"/>
<path d="M254.35 198.997V199.081H254.725V198.997H254.6H254.35Z" fill="white"/>
<path d="M287.805 162.575C287.805 162.575 287.93 162.575 287.93 162.658V162.407C287.805 162.491 287.805 162.491 287.805 162.575Z" fill="white"/>
<path d="M317.062 179.533C317.187 179.366 317.312 179.366 317.563 179.45H317.688C317.688 179.7 317.312 179.867 317.062 179.784H316.937C316.937 179.7 316.937 179.617 317.062 179.533ZM312.551 186.3C313.178 185.882 313.679 185.38 314.18 184.879C314.807 183.961 315.683 183.125 316.561 182.289C317.312 181.538 318.315 180.87 319.442 180.452C319.568 180.368 319.568 180.285 319.944 180.034C319.317 180.117 319.067 180.201 318.566 180.285C318.19 180.536 317.814 180.786 317.563 181.037C317.187 181.203 317.062 181.287 316.811 181.622C316.811 181.203 317.187 181.12 317.438 181.037C317.688 180.619 318.065 180.452 318.566 180.285C318.941 180.034 319.192 179.784 319.568 179.45C319.192 179.282 318.816 179.115 318.44 178.865C317.939 178.614 317.438 178.614 316.937 178.865C316.436 179.115 315.934 179.366 315.559 179.7C313.93 180.953 312.3 182.289 311.048 183.71C310.797 184.044 310.546 184.378 310.421 184.796C310.171 185.297 310.671 185.631 311.048 186.049C311.424 186.383 311.925 186.383 312.551 186.3Z" fill="white"/>
<path d="M294.007 207.016C294.258 206.849 294.258 206.765 294.383 206.599C294.508 206.432 294.508 206.264 294.633 206.097V206.181C294.508 206.264 294.508 206.432 294.383 206.599C294.258 206.765 294.258 206.933 294.007 207.1V207.016ZM294.343 200.813C293.967 201.064 293.591 201.398 293.091 201.566C292.965 201.566 292.965 201.649 292.84 201.733L292.589 201.899C292.589 201.817 292.714 201.733 292.84 201.733C292.84 201.649 292.965 201.566 293.091 201.566C293.091 201.315 293.341 201.148 293.466 200.98C294.586 200.234 295.663 199.46 296.727 198.676C296.415 199.038 296.109 199.411 295.801 199.778C295.778 199.792 295.762 199.811 295.722 199.811V199.873C295.712 199.885 295.701 199.897 295.691 199.909C295.084 200.158 294.713 200.485 294.343 200.813ZM292.213 202.15C292.213 202.234 292.088 202.317 291.962 202.401C291.962 202.484 291.838 202.568 291.712 202.568C291.712 202.652 291.587 202.735 291.461 202.819L291.211 203.069C291.085 203.152 289.582 203.905 290.835 203.152C290.835 203.069 290.96 203.069 291.085 202.985L291.336 202.735C291.461 202.652 291.587 202.652 291.587 202.568L291.962 202.317C291.962 202.234 292.088 202.15 292.213 202.15C292.338 202.066 292.338 201.983 292.464 201.983C292.464 202.066 292.338 202.066 292.213 202.15ZM291.211 201.315C290.835 201.983 290.209 202.484 289.206 202.735C289.707 202.15 290.334 201.733 291.211 201.315ZM288.705 203.152L288.83 203.069C288.83 203.069 288.83 203.152 288.705 203.152ZM294.343 199.059C293.843 199.894 292.965 200.48 291.838 200.897C292.464 200.145 293.341 199.561 294.343 199.059ZM298.854 195.885C298.478 196.303 297.977 196.72 297.601 197.054C297.1 197.389 296.724 197.639 296.097 197.722C296.974 197.054 297.726 196.387 298.854 195.885ZM296.764 203.675C296.764 203.508 296.889 203.341 296.889 203.258C296.889 203.425 296.764 203.508 296.764 203.675ZM295.26 205.346C295.26 205.262 295.385 205.262 295.385 205.178C295.385 205.262 295.511 205.262 295.511 205.262C295.385 205.346 295.385 205.346 295.26 205.346ZM282.449 206.557C282.574 206.39 282.574 206.223 282.825 206.055C283.827 205.22 285.948 204.991 287.202 204.322C287.076 204.406 283.702 205.888 282.449 206.557ZM257.357 196.156C257.858 195.488 258.234 194.82 259.111 194.402C259.486 193.651 260.113 192.898 260.991 192.397L260.239 193.567C260.364 193.734 260.489 193.818 260.489 193.984C260.489 194.068 260.489 194.235 260.364 194.319C259.486 196.072 258.735 197.744 257.858 199.414C257.733 199.581 257.607 199.665 257.607 199.749C257.231 199.665 257.231 199.498 257.231 199.414C257.106 198.997 257.106 198.663 256.856 198.245C256.229 197.409 256.355 196.742 257.357 196.156ZM255.979 196.574C255.979 196.574 255.854 196.658 255.728 196.574V196.407C256.104 195.99 256.355 195.572 256.981 195.237C257.106 195.07 257.106 194.904 257.231 194.82C258.234 193.734 259.111 192.648 260.239 191.73C260.239 191.979 260.239 192.147 260.113 192.314C259.111 193.316 258.36 194.402 257.106 195.321C256.981 195.823 256.605 196.24 255.979 196.574ZM259.362 205.513V205.43C259.486 205.43 259.486 205.43 259.362 205.513ZM257.607 209.188C257.733 208.855 257.733 208.52 258.109 208.269C258.234 208.687 257.983 208.937 257.607 209.188ZM254.6 197.995C254.6 198.078 254.6 198.078 254.475 198.162C252.846 199.749 251.218 201.253 249.212 202.589C248.962 202.839 248.586 203.09 248.085 203.258C248.085 203.341 247.96 203.425 247.834 203.508C247.709 203.675 247.458 203.758 247.208 203.842C247.208 203.591 247.458 203.508 247.709 203.341C247.834 203.341 247.834 203.258 247.96 203.174C248.21 203.007 248.336 202.756 248.586 202.589C250.465 201.169 252.22 199.665 253.849 198.162C253.974 197.995 254.099 197.911 254.35 197.744H254.6C254.725 197.828 254.725 197.911 254.6 197.995ZM247.834 201.586C247.709 201.586 247.584 201.67 247.584 201.753V201.586H247.834ZM251.218 198.663C251.092 198.663 250.967 198.746 250.967 198.83V198.663H251.218ZM246.707 202.339V202.172L246.331 202.422C245.955 202.505 245.704 202.756 245.203 202.756C245.955 202.004 246.958 201.336 247.96 200.667C248.461 200.083 248.962 199.581 249.588 199.164L249.965 198.997C250.09 198.663 250.34 198.412 250.842 198.162C250.842 198.078 250.967 197.995 251.092 197.995C251.218 197.66 251.468 197.409 251.969 197.159V197.577H252.345C252.22 197.66 252.22 197.744 252.094 197.744C252.094 197.66 252.094 197.66 251.969 197.577C251.969 197.66 251.844 197.744 251.718 197.828H251.969C251.969 197.995 251.718 198.245 251.468 198.412V197.995H251.092C251.092 198.078 250.967 198.162 250.967 198.245C250.967 198.328 250.967 198.495 250.842 198.579C250.842 198.663 250.716 198.746 250.591 198.83H250.842C250.842 198.914 250.716 198.914 250.591 198.997V198.83C250.465 198.914 250.465 198.997 250.34 198.997C250.215 199.081 250.215 199.081 250.09 199.081V199.248C250.09 199.164 250.215 199.081 250.34 199.081H250.591C250.591 199.331 250.465 199.498 250.09 199.665C249.965 199.749 249.965 199.832 249.839 199.832V199.665H250.09V199.248C249.965 199.248 249.965 199.331 249.839 199.331C249.839 199.414 249.839 199.581 249.714 199.665C249.714 199.749 249.588 199.832 249.463 199.916H249.839C249.714 200 249.714 200.083 249.588 200.083C249.463 200 249.463 199.916 249.463 199.916C249.338 199.916 249.338 200 249.212 200.083H249.463C249.463 200.167 249.338 200.25 249.212 200.25V200.083C249.087 200.167 249.087 200.25 248.962 200.25H249.087C249.087 200.25 249.212 200.25 249.212 200.333C249.087 200.751 248.586 201.086 248.085 201.336C248.085 201.419 247.96 201.419 247.834 201.503V201.336L247.584 201.503C247.458 201.586 247.333 201.67 247.208 201.753H247.458C247.458 201.837 247.333 201.921 247.208 201.921V201.753L246.958 202.004H247.208L246.958 202.172C246.832 202.255 246.832 202.339 246.707 202.339ZM246.08 204.427C246.331 204.26 246.581 204.176 246.832 204.093C246.581 204.26 246.456 204.427 246.08 204.427ZM240.066 204.511C239.314 204.928 238.437 205.262 237.434 205.513C236.934 205.679 236.557 205.513 236.557 205.095C236.683 204.093 236.934 203.09 237.56 202.255C238.312 201.336 239.063 200.417 240.191 199.665C240.567 199.414 240.943 199.164 240.943 198.83C240.317 198.997 240.066 199.331 239.564 199.581C239.314 199.832 239.063 200.167 238.562 200.333C238.437 200.667 238.187 200.918 237.811 201.086C237.811 200.751 238.061 200.417 238.562 200.25C239.314 199.081 240.567 198.245 242.196 197.577C242.446 197.326 242.697 197.159 243.199 197.159C243.073 197.409 242.697 197.493 242.321 197.66C242.07 197.995 241.444 198.162 241.193 198.663C241.82 198.579 242.196 198.328 242.572 198.078C243.7 197.493 244.827 196.992 246.08 196.574C247.208 196.24 248.336 195.99 249.714 195.99H250.34C250.591 196.072 250.716 196.24 250.591 196.407C250.34 196.742 250.09 197.159 249.714 197.409C248.837 198.162 247.96 198.914 247.208 199.665C245.078 201.503 242.697 203.09 240.066 204.511ZM237.811 199.081H238.061C237.936 199.081 237.936 199.164 237.811 199.248V199.081ZM237.434 198.997C237.56 198.997 237.685 198.914 237.685 198.83C237.685 198.914 237.811 198.997 237.811 198.997H237.434ZM237.685 201.169C237.685 201.419 237.56 201.586 237.184 201.67C237.309 201.503 237.434 201.253 237.685 201.169ZM237.434 199.081V199.248H237.184C237.309 199.164 237.309 199.081 237.434 199.081ZM237.811 198.83C237.811 198.746 237.936 198.663 238.061 198.663V198.83H238.312C238.312 198.914 238.187 198.997 238.061 198.997V198.83H237.811ZM238.562 198.412H238.312V198.579H238.061C238.187 198.579 238.187 198.495 238.312 198.412L238.562 198.245V198.412ZM238.688 198.663C238.562 198.663 238.437 198.746 238.437 198.83C238.437 198.746 238.312 198.663 238.312 198.663H238.688ZM240.567 196.909C240.693 196.825 240.818 196.825 240.818 196.742C240.818 196.825 240.818 196.909 240.693 196.992C240.442 197.577 239.69 197.995 238.938 198.412C238.813 198.495 238.813 198.495 238.688 198.579V198.412H238.938L238.562 198.162C239.063 197.577 239.69 197.159 240.567 196.909ZM241.444 196.574C241.444 196.742 241.193 196.742 240.943 196.742C241.068 196.574 241.319 196.574 241.444 196.574ZM252.846 196.742C252.721 196.825 252.595 196.909 252.595 196.909H252.22C252.345 196.574 252.47 196.574 252.846 196.742ZM236.681 197.577C236.18 198.162 236.18 198.162 235.303 198.412C235.679 198.162 236.055 197.828 236.681 197.577ZM231.669 201.002C231.293 201.253 230.917 201.419 230.416 201.503C231.168 200.918 231.92 200.333 233.048 200L231.669 201.002ZM226.281 204.26C226.908 203.675 227.785 203.174 228.662 202.672C228.161 203.425 227.284 203.925 226.281 204.26ZM226.281 205.597L226.031 205.763C225.906 205.847 225.78 205.93 225.655 206.014L225.405 206.181C225.405 206.264 225.279 206.264 225.154 206.348C224.277 207.267 223.149 208.019 221.896 208.687C221.896 208.604 221.896 208.52 222.021 208.436C222.898 207.685 223.901 206.933 225.154 206.264L225.405 206.097C225.405 206.014 225.53 206.014 225.655 205.93C225.78 205.847 225.78 205.763 225.906 205.763L226.156 205.597C226.281 205.513 226.281 205.43 226.532 205.43C226.407 205.513 226.407 205.597 226.281 205.597ZM221.52 207.601C220.518 208.353 219.516 209.188 218.388 209.773C218.513 209.606 218.513 209.439 218.763 209.355C219.766 208.604 220.643 207.851 221.771 207.267C221.771 207.434 221.645 207.518 221.52 207.601ZM221.645 208.855C221.645 208.771 221.645 208.771 221.771 208.687C221.771 208.771 221.645 208.771 221.645 208.855ZM221.269 209.021L221.52 208.855C221.52 208.937 221.395 209.021 221.269 209.021ZM221.019 209.272C220.392 209.941 219.641 210.525 218.638 211.025C219.14 210.441 220.017 209.69 221.019 209.272C221.145 209.188 221.145 209.105 221.269 209.105C221.269 209.188 221.145 209.188 221.019 209.272ZM223.4 206.181C223.4 206.264 223.4 206.264 223.274 206.264L223.4 206.181ZM225.655 204.677C225.279 205.262 224.653 205.679 223.775 205.93C224.277 205.43 224.903 205.011 225.655 204.677ZM211.998 207.434C211.998 207.769 211.747 208.019 211.496 208.269C211.621 207.935 211.621 207.685 211.998 207.434ZM211.496 197.242C211.496 197.242 211.371 197.326 211.246 197.242V197.076C211.496 196.909 211.621 196.658 211.872 196.491C211.872 196.491 211.998 196.491 211.998 196.407L212.499 196.072C212.624 195.99 212.624 195.823 212.749 195.656L213.125 195.405V195.488C213.25 195.405 213.25 195.321 213.25 195.321L213.501 195.07C213.752 194.986 214.003 194.904 214.128 194.737C214.003 194.737 214.003 194.737 213.877 194.82L214.253 194.569H214.378C213.877 195.154 213.25 195.656 212.624 196.156C212.374 196.574 211.998 196.909 211.496 197.242ZM215.255 191.562C215.255 191.479 215.38 191.395 215.506 191.311C215.631 190.977 216.007 190.726 216.383 190.56C216.633 190.226 217.009 189.975 217.511 189.807C217.636 189.724 217.636 189.64 217.761 189.64V189.807H217.511C217.511 189.891 217.511 189.975 217.636 190.058C217.636 190.058 217.761 189.975 217.887 189.975L217.636 190.226C217.511 190.476 217.26 190.644 216.884 190.726C216.759 190.81 216.759 190.893 216.633 190.977V190.81C216.508 190.893 216.383 190.977 216.383 191.061C216.257 191.228 216.007 191.395 215.631 191.395L215.38 191.646C215.255 191.896 214.88 191.979 214.629 192.063L215.255 191.562ZM218.513 189.056C218.513 188.972 218.638 188.972 218.638 188.889C218.763 188.805 218.763 188.805 218.889 188.889L218.763 188.972C218.763 188.972 218.638 189.056 218.513 189.056C218.388 189.307 218.138 189.474 217.761 189.558C218.012 189.39 218.138 189.223 218.513 189.056ZM219.39 195.405C219.39 195.739 219.14 195.99 218.889 196.24C218.889 195.906 219.014 195.656 219.39 195.405ZM218.513 196.992L218.388 197.076C218.262 197.076 218.262 196.992 218.262 196.909C218.388 196.825 218.513 196.825 218.513 196.742V196.992ZM217.26 198.83C217.26 198.663 217.26 198.495 217.511 198.328C217.386 198.495 217.386 198.663 217.26 198.83ZM215.506 201.336C215.631 201.002 215.756 200.751 216.133 200.5C216.007 200.835 215.882 201.086 215.506 201.336ZM212.749 199.749C212.749 199.832 212.624 199.916 212.499 200C212.123 200 212.248 199.832 212.248 199.749C212.123 199.414 212.123 199.081 211.998 198.746C211.747 198.162 211.747 197.744 212.123 197.326L215.005 194.653C215.756 194.986 213.125 199.248 212.749 199.749ZM213.376 205.011V204.928C213.501 204.928 213.501 205.011 213.376 205.011ZM210.118 198.495C210.118 198.579 210.118 198.579 209.993 198.663C208.364 200 206.735 201.336 204.981 202.505C204.605 202.756 204.355 202.923 203.853 203.09L203.602 203.258C203.478 203.425 203.227 203.508 202.976 203.591C203.102 203.341 203.227 203.258 203.478 203.174C203.602 203.09 203.728 203.09 203.728 203.007L204.355 202.505C206.109 201.253 207.863 200 209.366 198.663L209.867 198.328C209.867 198.245 210.118 198.245 210.118 198.245C210.243 198.328 210.243 198.412 210.118 198.495ZM202.475 202.339C202.099 202.422 201.723 202.672 201.347 202.672C202.099 201.921 203.102 201.419 203.979 200.751C204.48 200.333 204.981 199.916 205.607 199.498C205.733 199.498 205.858 199.414 205.858 199.331C206.109 199.081 206.359 198.83 206.735 198.663C206.86 198.579 206.986 198.495 207.111 198.495C207.237 198.162 207.487 197.911 207.863 197.744V198.162H208.239C208.114 198.162 207.989 198.245 207.863 198.245V198.162C207.737 198.162 207.737 198.245 207.612 198.328H207.863C207.863 198.495 207.612 198.663 207.361 198.83V198.495H207.111C206.986 198.579 206.986 198.663 206.86 198.663V198.997H207.111C206.986 199.081 206.86 199.164 206.86 199.164V198.997C206.735 199.081 206.61 199.164 206.485 199.164C206.485 199.248 206.359 199.331 206.234 199.414H206.485V199.248H206.735L206.485 199.414C206.485 199.581 206.234 199.832 205.984 199.916C205.858 200 205.858 200.083 205.733 200.083V199.916C205.607 200 205.482 200.083 205.482 200.167H205.733L205.482 200.333C205.357 200.417 205.357 200.5 205.231 200.5V200.333C205.106 200.333 204.981 200.417 204.855 200.5H204.981H205.106C204.981 200.918 204.605 201.169 204.104 201.419C203.979 201.419 203.853 201.503 203.853 201.586V201.419C203.728 201.419 203.602 201.503 203.478 201.586H203.728C203.728 201.67 203.602 201.67 203.602 201.753C203.478 201.67 203.478 201.67 203.478 201.586C203.478 201.67 203.352 201.67 203.227 201.753H203.478C203.478 201.837 203.352 201.837 203.227 201.921C203.102 202.004 203.102 202.088 202.976 202.088V201.921C202.851 202.004 202.726 202.088 202.726 202.172H202.976C202.851 202.172 202.851 202.255 202.726 202.255V202.172C202.6 202.172 202.475 202.255 202.475 202.339ZM201.974 204.093C202.099 203.925 202.349 203.842 202.6 203.842C202.475 203.925 202.225 204.093 201.974 204.093ZM196.711 204.176C195.96 204.593 195.083 204.844 194.33 205.095C193.83 205.178 193.454 205.011 193.579 204.677C193.83 203.842 194.08 202.923 194.832 202.172C195.583 201.336 196.336 200.584 197.463 200C197.714 199.749 198.09 199.498 198.09 199.164C197.588 199.331 197.212 199.665 196.836 199.916C196.586 200.083 196.336 200.333 195.834 200.5C195.709 200.835 195.458 201.086 195.083 201.169C195.208 200.918 195.458 200.584 195.834 200.5C196.192 200.057 196.625 199.681 197.091 199.338C197.564 199.167 198.049 198.996 198.529 198.825C198.459 198.879 198.388 198.933 198.34 198.997C198.841 198.997 199.217 198.746 199.593 198.579C199.983 198.385 200.402 198.196 200.823 198.011C201.112 197.904 201.46 197.763 201.772 197.632C202.131 197.496 202.488 197.35 202.851 197.242C203.853 196.909 204.981 196.742 205.984 196.742H206.61C206.86 196.825 206.986 196.992 206.86 197.076C206.485 197.409 206.234 197.744 205.858 197.995L203.478 200C201.473 201.503 199.217 202.923 196.711 204.176ZM195.083 201.253C194.957 201.419 194.832 201.586 194.456 201.67C194.706 201.503 194.832 201.336 195.083 201.253ZM190.022 201.308C187.641 202.31 185.135 203.313 182.629 204.231L179.622 205.485C178.995 205.736 178.494 205.985 177.742 206.069C177.993 205.819 178.369 205.652 178.619 205.485C181.877 204.231 185.135 202.811 188.392 201.642C188.894 201.475 189.395 201.224 189.896 201.141C190.941 200.731 192.017 200.343 193.107 199.973C192.931 200.121 192.746 200.266 192.576 200.417C192.545 200.448 192.513 200.487 192.481 200.519C191.679 200.789 190.867 201.054 190.022 201.308ZM177.116 206.236C177.241 206.153 177.492 206.069 177.617 206.069C177.492 206.153 177.366 206.153 177.116 206.236ZM178.369 203.731C178.745 203.396 179.246 203.229 179.872 203.145C179.998 202.978 180.248 202.895 180.499 202.895C181.125 202.478 181.877 202.143 182.754 202.059C182.879 201.892 183.005 201.809 183.255 201.809C185.01 201.057 186.764 200.473 188.644 199.971C188.392 200.389 187.891 200.473 187.39 200.723C187.139 200.806 186.764 200.89 186.513 201.057C186.262 201.057 186.137 201.141 185.887 201.224C185.636 201.308 185.385 201.392 185.26 201.475C185.01 201.475 184.759 201.559 184.634 201.642C184.383 201.725 184.132 201.809 184.007 201.892H183.38V202.059C183.129 202.059 183.005 202.143 182.754 202.143C182.629 202.227 182.504 202.394 182.378 202.478L181.752 202.728C181.626 202.728 181.376 202.811 181.125 202.895C181 202.895 180.749 202.895 180.624 202.978C180.374 203.062 180.123 203.145 179.872 203.145C179.497 203.48 178.995 203.731 178.369 203.731C178.244 203.897 178.118 204.064 177.993 204.148L176.238 204.566C176.74 204.148 177.492 203.897 178.369 203.731ZM175.613 204.817C175.737 204.65 175.863 204.65 176.113 204.566L175.613 204.817ZM192.653 198.718C191.65 199.303 190.397 199.553 189.269 199.971H188.768C189.896 199.47 191.275 198.969 192.653 198.718ZM193.405 198.551L192.778 198.718C193.029 198.634 193.154 198.551 193.405 198.551ZM194.031 198.301C194.281 198.217 194.407 198.134 194.658 198.134C194.533 198.217 194.281 198.301 194.031 198.301V198.551H193.53C193.655 198.385 193.78 198.301 194.031 198.301ZM196.161 197.715C195.785 197.966 195.284 198.05 194.782 198.134C195.158 197.883 195.66 197.715 196.161 197.715ZM196.719 197.484C196.657 197.518 196.591 197.547 196.529 197.581C196.438 197.611 196.347 197.632 196.286 197.632C196.397 197.558 196.521 197.543 196.719 197.484ZM199.343 198.078C199.399 198.04 199.462 198.019 199.52 197.988C199.677 197.947 199.859 197.932 200.039 197.917C199.9 198.027 199.724 198.105 199.468 198.162C199.448 198.188 199.415 198.208 199.392 198.232C199.237 198.266 199.07 198.289 198.882 198.295C199.036 198.223 199.185 198.145 199.343 198.078ZM196.21 198.988C196.218 198.986 196.226 198.983 196.235 198.981C196.229 198.984 196.21 198.997 196.21 198.997V198.988ZM195.834 199.107C195.909 199.084 195.983 199.059 196.058 199.037C196.026 199.104 195.938 199.164 195.834 199.164V199.107ZM195.333 199.532V199.414H195.083V199.581H194.832C194.832 199.498 194.957 199.414 195.083 199.414C195.14 199.376 195.169 199.339 195.198 199.309C195.243 199.294 195.288 199.28 195.333 199.266V199.414H195.583V199.248H195.834C195.709 199.248 195.709 199.331 195.583 199.414L195.489 199.477C195.437 199.496 195.385 199.514 195.333 199.532ZM208.74 197.409C208.614 197.409 208.489 197.493 208.489 197.577H208.239C208.239 197.242 208.364 197.242 208.74 197.409ZM168.874 198.404C167.7 198.817 166.555 199.229 165.397 199.631C164.207 200.044 163.002 200.447 161.732 200.827C159.352 201.83 156.846 202.832 154.34 203.751L151.333 205.004C150.706 205.255 150.205 205.505 149.453 205.588C149.704 205.339 150.08 205.171 150.33 205.004C153.588 203.751 156.846 202.33 160.104 201.162C160.605 200.995 161.106 200.744 161.607 200.66C162.876 200.163 164.193 199.704 165.524 199.266C166.428 198.969 167.336 198.674 168.248 198.404C168.498 198.321 168.874 198.321 169.125 198.237C168.999 198.321 168.999 198.404 168.874 198.404ZM148.827 205.756C148.952 205.672 149.203 205.588 149.328 205.588C149.203 205.672 149.077 205.672 148.827 205.756ZM150.08 203.25C150.456 202.916 150.957 202.748 151.583 202.665C151.709 202.498 151.959 202.414 152.21 202.414C152.836 201.997 153.588 201.662 154.465 201.579C154.591 201.412 154.716 201.328 154.967 201.328C156.721 200.576 158.475 199.992 160.355 199.49C160.104 199.909 159.603 199.992 159.101 200.242C158.85 200.326 158.475 200.409 158.225 200.576C157.973 200.576 157.848 200.66 157.598 200.744C157.347 200.827 157.096 200.911 156.971 200.995C156.721 200.995 156.47 201.078 156.345 201.162C156.094 201.244 155.843 201.328 155.719 201.412H155.092V201.579C154.841 201.579 154.716 201.662 154.465 201.662C154.34 201.746 154.215 201.913 154.089 201.997L153.463 202.248C153.338 202.248 153.087 202.33 152.836 202.414C152.712 202.414 152.461 202.414 152.335 202.498C152.085 202.581 151.834 202.665 151.583 202.665C151.208 202.999 150.706 203.25 150.08 203.25C149.955 203.416 149.829 203.584 149.704 203.667L147.95 204.085C148.451 203.667 149.203 203.416 150.08 203.25ZM147.324 204.336C147.449 204.169 147.574 204.169 147.825 204.085L147.324 204.336ZM164.364 198.237C163.362 198.823 162.108 199.073 160.981 199.49H160.48C161.607 198.99 162.985 198.488 164.364 198.237ZM165.116 198.07L164.489 198.237C164.74 198.154 164.865 198.07 165.116 198.07ZM165.742 197.82C165.873 197.776 165.972 197.735 166.071 197.703C166.16 197.674 166.249 197.653 166.369 197.653C166.296 197.702 166.177 197.744 166.045 197.776C165.949 197.8 165.847 197.82 165.742 197.82V198.07H165.241C165.366 197.904 165.492 197.82 165.742 197.82ZM167.872 197.235C167.496 197.486 166.995 197.569 166.494 197.653C166.869 197.402 167.371 197.235 167.872 197.235ZM168.498 196.984C168.374 197.068 168.123 197.151 167.997 197.151C168.123 197.068 168.248 197.068 168.498 196.984ZM139.43 198.488C139.179 198.572 139.054 198.739 138.928 198.823C137.926 199.156 136.924 199.49 136.047 199.741C135.545 200.076 135.044 200.326 134.543 200.409L131.035 201.997C126.274 204.169 121.762 206.591 117.252 209.014C115.623 209.849 113.995 210.769 112.115 211.52C111.739 211.771 111.238 211.937 110.862 212.104C110.611 211.855 110.862 211.771 110.988 211.771C115.498 209.599 119.633 207.176 124.018 204.92C126.9 203.5 129.781 202.081 132.789 200.827C133.29 200.576 133.791 200.409 134.293 200.242C134.669 199.992 135.295 199.741 135.796 199.658C136.924 199.156 138.051 198.655 139.43 198.404V198.488ZM135.044 198.655C134.793 198.739 134.543 198.823 134.418 198.906V198.655H135.044ZM109.358 210.35C109.484 210.267 109.609 210.183 109.859 210.183C110.11 209.765 110.611 209.599 111.113 209.515C112.741 208.597 114.37 207.677 116.125 206.842C117.127 206.257 118.129 205.756 119.132 205.255C120.009 204.753 120.76 204.336 121.762 204.002C123.767 202.916 126.023 201.83 128.278 200.911C128.529 200.66 128.905 200.576 129.281 200.493C129.531 200.242 129.781 200.159 130.158 200.076C130.909 199.658 131.786 199.24 132.663 198.99C133.165 198.739 133.666 198.488 134.293 198.404C134.543 198.321 134.669 198.237 134.919 198.237C135.17 198.07 135.42 198.07 135.671 198.07C136.298 197.486 137.174 197.318 138.051 197.235C137.425 197.486 136.798 197.737 136.298 198.07V197.987C136.047 197.987 135.796 197.987 135.671 198.07C135.671 198.07 135.671 198.154 135.545 198.237H135.044V198.404C134.793 198.488 134.669 198.488 134.418 198.488C134.418 198.572 134.418 198.655 134.293 198.655C134.293 198.739 134.167 198.823 134.042 198.906C133.791 198.906 133.666 198.99 133.415 199.073L132.914 199.156C132.914 199.24 132.914 199.24 132.789 199.24C133.04 199.323 133.165 199.323 133.415 199.323L132.789 199.49C132.538 199.741 132.163 199.825 131.786 199.992C131.662 199.992 131.411 200.076 131.286 200.076L130.909 200.326C130.659 200.409 130.534 200.493 130.283 200.493V200.326C130.158 200.409 130.032 200.493 130.032 200.576H130.283C130.158 200.576 130.032 200.66 130.032 200.744V200.576C129.781 200.576 129.656 200.576 129.531 200.66C129.531 200.66 129.406 200.66 129.406 200.744H129.907C129.781 200.911 129.531 200.911 129.406 200.995C129.406 200.911 129.406 200.827 129.281 200.744C129.281 200.827 129.156 200.911 129.03 200.995H129.281L129.03 201.162C128.905 201.328 128.654 201.328 128.404 201.412L128.028 201.579C127.902 201.83 127.526 201.913 127.151 201.997C127.025 202.081 126.9 202.164 126.9 202.164V201.997C126.65 202.081 126.399 202.164 126.274 202.248H126.775C126.65 202.33 126.399 202.33 126.274 202.414V202.248H126.149C126.149 202.248 126.023 202.33 125.898 202.414H126.149C126.149 202.498 126.023 202.581 125.898 202.581V202.414C125.772 202.498 125.522 202.581 125.396 202.581C125.522 202.581 125.647 202.665 125.898 202.665C125.647 202.832 125.396 202.999 124.895 203.083C124.77 203.333 124.394 203.416 124.018 203.5C124.018 203.584 123.893 203.667 123.643 203.667C123.517 203.918 123.141 204.085 122.765 204.085C122.64 204.169 122.514 204.253 122.514 204.253V204.085C122.264 204.085 122.139 204.169 121.888 204.169C121.888 204.253 121.888 204.253 121.762 204.336H122.389C122.264 204.502 121.888 204.67 121.512 204.753C121.387 204.837 121.262 204.837 121.262 204.92V204.753C121.011 204.753 120.76 204.837 120.635 204.92H121.137C121.011 205.171 120.635 205.339 120.259 205.339C120.259 205.505 120.134 205.505 120.009 205.588V205.339C119.758 205.339 119.633 205.422 119.382 205.422V205.588H119.883C119.633 205.923 119.257 206.09 118.756 206.174V206.006C118.631 206.006 118.505 206.09 118.38 206.174H118.631C118.631 206.257 118.505 206.341 118.38 206.425C118.129 206.674 117.879 206.758 117.503 206.842V206.591C117.377 206.674 117.252 206.758 117.127 206.842H117.377C117.377 206.925 117.252 207.009 117.127 207.009V206.842C116.75 206.925 116.5 207.092 116.125 207.26H116.75C116.5 207.427 116.25 207.594 115.874 207.677L115.498 207.844C115.373 208.095 114.997 208.178 114.621 208.262C114.496 208.345 114.37 208.429 114.246 208.513L113.995 208.68C113.743 208.93 113.368 209.014 112.992 209.097C112.867 209.181 112.867 209.264 112.741 209.348V209.097C112.365 209.181 112.115 209.348 111.864 209.515C111.614 209.515 111.489 209.599 111.238 209.599C110.862 209.849 110.486 210.1 109.859 210.183C109.734 210.35 109.609 210.35 109.358 210.35ZM108.106 200.744V200.66C108.231 200.744 108.231 200.744 108.106 200.744ZM107.353 200.995C107.229 201.078 106.978 201.162 106.727 201.162C106.351 201.495 105.976 201.579 105.474 201.579C104.973 202.081 104.221 202.248 103.344 202.414C103.094 202.581 102.968 202.581 102.718 202.665C102.467 202.748 102.342 202.832 102.091 202.832C101.465 203.25 100.838 203.584 99.8361 203.667C99.2091 204.169 98.5831 204.419 97.7061 204.502C97.3301 204.837 96.8291 205.088 96.0771 205.171C95.7011 205.505 95.2001 205.672 94.5741 205.756C94.9491 205.339 95.4501 205.255 96.0771 205.171C96.4531 204.753 97.0801 204.586 97.5811 204.502C98.2071 204.085 98.9591 203.834 99.8361 203.667C100.462 203.25 101.215 202.999 102.091 202.832C102.217 202.665 102.467 202.665 102.718 202.665C102.843 202.498 103.094 202.414 103.344 202.414C103.845 201.913 104.722 201.746 105.474 201.579C105.85 201.412 106.227 201.244 106.727 201.162C106.978 201.078 107.103 200.995 107.353 200.995C107.604 200.827 107.729 200.744 107.98 200.744C107.855 200.911 107.604 200.911 107.353 200.995ZM93.9471 205.923C94.1981 205.839 94.3231 205.839 94.4481 205.839C94.3231 205.839 94.1981 205.923 93.9471 205.923ZM92.6931 204.502C92.8191 204.419 93.0701 204.336 93.3201 204.336C93.6961 204.002 94.1981 203.751 94.8241 203.667C95.3251 203.333 95.7011 203.083 96.4531 203.083C96.5781 202.916 96.8291 202.832 97.0801 202.832C97.2051 202.581 97.5811 202.498 97.9571 202.414C98.2071 202.33 98.3321 202.248 98.5831 202.248C98.8331 202.081 98.9591 201.997 99.2091 201.997C99.0841 202.164 98.8331 202.164 98.5831 202.248C98.4571 202.414 98.2071 202.414 97.9571 202.414C97.8311 202.665 97.4551 202.832 97.0801 202.832C96.8291 202.999 96.7031 203.083 96.4531 203.083C96.0771 203.416 95.4501 203.584 94.8241 203.667C94.4481 204.085 93.9471 204.169 93.3201 204.336C93.0701 204.419 92.9451 204.502 92.6931 204.502ZM91.6911 204.92C91.9421 204.67 92.1931 204.586 92.5691 204.502C92.4431 204.753 92.0681 204.837 91.6911 204.92ZM91.0651 205.088C91.3161 205.088 91.4411 205.004 91.6911 205.004C91.4411 205.088 91.3161 205.088 91.0651 205.088ZM100.086 201.579C99.9611 201.83 99.5861 201.913 99.3351 201.997C99.4601 201.746 99.8361 201.662 100.086 201.579ZM100.838 201.412C100.963 201.244 101.215 201.162 101.465 201.162C101.59 200.995 101.84 200.995 101.966 200.995C101.84 201.078 101.715 201.162 101.465 201.162C101.339 201.328 101.089 201.328 100.838 201.412C100.588 201.495 100.462 201.579 100.212 201.579C100.337 201.495 100.588 201.412 100.838 201.412ZM102.592 200.744C102.467 200.911 102.342 200.911 102.091 200.911C102.217 200.827 102.467 200.827 102.592 200.744ZM103.971 200.159L104.848 199.909C104.597 200.159 104.346 200.326 103.971 200.326C103.845 200.242 103.845 200.159 103.971 200.159ZM105.474 199.741C105.349 199.825 105.098 199.909 104.973 199.909C105.098 199.825 105.224 199.825 105.474 199.741ZM106.101 199.49C105.976 199.658 105.725 199.658 105.474 199.658L106.101 199.49ZM106.727 199.323C106.602 199.407 106.351 199.49 106.227 199.49C106.351 199.407 106.602 199.323 106.727 199.323ZM8.02113 217.969C8.48713 218.124 8.25414 218.28 8.37114 218.513C7.90514 218.357 8.02113 218.124 8.02113 217.969ZM6.97313 214.63C6.97313 213.931 7.09013 213.232 7.32213 212.611C7.55513 211.679 7.90513 210.825 8.25413 209.893C8.37113 209.738 8.37113 209.583 8.60313 209.583C8.48713 209.35 8.60311 209.039 8.83711 208.805C8.83711 208.729 9.07011 208.729 9.18611 208.651C9.18611 208.418 9.07014 208.262 9.30214 208.029C9.30214 208.262 9.30211 208.495 9.18611 208.651C8.95311 208.961 8.83713 209.272 8.60313 209.583C8.37113 210.204 8.13813 210.902 7.90513 211.524L7.20613 214.164C7.20613 214.319 7.09013 214.475 6.97313 214.63ZM6.97313 215.95H6.85612V215.407H6.97313V215.95ZM6.27513 210.67C5.80813 212.067 5.45912 213.543 5.22612 214.94C5.22612 215.018 5.10911 215.018 5.10911 215.173C5.10911 214.863 4.99312 214.63 4.99312 214.319C5.22612 212.611 5.80813 210.98 6.39113 209.272C6.50713 209.116 6.74012 209.039 6.85612 208.883C6.62412 208.495 6.74013 208.185 7.43913 208.029C7.43913 207.796 7.32213 207.641 7.32213 207.408C7.32213 207.175 7.43913 206.942 7.90513 206.942C7.78813 206.554 7.78814 206.554 8.13814 206.399C8.02114 206.243 8.02114 206.01 8.37114 205.855C8.37114 205.7 8.48713 205.545 8.48713 205.389L8.83711 205.156C8.72011 205.234 8.72013 205.389 8.48713 205.389C8.48713 205.545 8.48714 205.7 8.37114 205.855C8.25414 206.01 8.25414 206.243 8.13814 206.399C8.02114 206.554 8.02113 206.71 7.90513 206.942C7.78813 207.253 7.55513 207.641 7.43913 208.029L7.09013 208.573C6.97313 208.651 6.85612 208.805 6.85612 208.883C6.85612 209.505 6.50713 210.126 6.27513 210.67ZM5.10911 219.755H4.99312C5.10912 219.6 5.10912 219.522 5.22612 219.445C4.99312 219.289 4.76011 219.212 4.76011 219.134C4.52711 218.513 4.29411 217.891 4.29411 217.27C3.94511 215.096 4.29411 212.844 5.10911 210.67C5.57511 209.116 6.39113 207.564 7.20613 206.01C7.32213 205.7 7.55513 205.389 7.78813 205.078H8.13814C7.90514 204.691 8.25413 204.38 8.60313 204.224C8.48713 204.535 8.25414 204.768 8.13814 205.001V205.078C7.78814 205.855 7.32213 206.554 6.97313 207.33C5.69213 209.738 4.87611 212.145 4.64311 214.63C4.52711 216.183 4.64311 217.736 5.10911 219.289C5.10911 219.289 5.10912 219.367 5.22612 219.445C5.10912 219.522 5.10911 219.678 5.10911 219.755ZM8.83711 203.681C8.95311 203.836 8.72013 203.991 8.60313 204.147C8.60313 203.991 8.48711 203.836 8.83711 203.681ZM8.95314 205.001V205.078C8.95314 205.001 8.83714 204.923 8.95314 205.001ZM9.41911 202.516C9.76811 202.594 9.53514 202.672 9.53514 202.826C9.53514 202.904 9.41911 202.982 9.41911 203.059C9.30211 203.059 9.18611 202.982 9.18611 202.982C9.30211 202.826 9.41911 202.672 9.41911 202.516ZM9.53514 203.991C9.53514 203.991 9.41911 203.991 9.41911 204.069V203.991V203.913H9.65211C9.65211 203.991 9.65214 203.991 9.53514 203.991ZM10.0021 203.137C10.0021 203.215 9.88511 203.292 9.76811 203.292L10.0021 203.137ZM10.3511 202.749C10.3511 202.826 10.2351 202.904 10.1181 202.982C10.1181 202.904 10.2351 202.749 10.3511 202.749ZM10.2351 201.584H10.3511V201.662H10.2351V201.584ZM10.4671 202.672C10.4671 202.594 10.4671 202.594 10.3511 202.516H10.4671V202.672ZM10.7001 205.7V205.778L10.5841 205.855H10.4671L10.5841 205.778C10.5841 205.778 10.7001 205.778 10.7001 205.7ZM10.9341 201.817V201.74C11.0491 201.817 11.0491 201.817 11.0491 201.894H10.9341V201.817ZM11.1661 200.186C11.2831 200.419 11.2831 200.575 10.9341 200.807C11.0491 200.575 11.1661 200.342 11.1661 200.186ZM11.5151 199.875C12.2151 200.108 12.3311 199.798 12.4471 199.488L13.3791 198.866C13.2621 199.254 13.0301 199.488 12.4471 199.488C12.7971 199.875 12.5641 200.108 12.0981 200.342C11.9811 200.497 11.8651 200.73 11.7481 201.04C11.6321 200.653 11.8651 200.497 12.0981 200.342C11.8651 200.264 11.6321 200.186 11.2831 200.108C11.2831 200.031 11.5151 199.875 11.5151 199.875ZM14.1941 198.089V197.934H14.3111C14.3111 198.012 14.1941 198.012 14.1941 198.089C13.9611 198.323 13.9611 198.711 13.3791 198.789C13.4951 198.4 13.6121 198.167 14.1941 198.089ZM14.7771 196.226C14.7771 196.304 14.8931 196.304 14.8931 196.304V196.459C14.7771 196.459 14.6611 196.459 14.6611 196.381C14.6611 196.381 14.7771 196.304 14.7771 196.226ZM15.7081 200.653C15.4761 200.963 15.5921 201.273 15.0101 201.429C15.1261 201.04 15.1261 200.807 15.7081 200.653ZM15.4761 196.381C15.4761 196.459 15.5921 196.459 15.5921 196.459C15.5921 196.537 15.5921 196.614 15.4761 196.692H15.3591C15.3591 196.614 15.4761 196.537 15.4761 196.381ZM16.7571 195.216C16.9891 194.905 17.2231 194.673 17.4561 194.44L18.2711 193.664C18.2711 194.285 17.5721 194.517 17.3391 194.905C17.1061 195.216 16.6401 195.605 16.1741 195.992C16.0581 195.527 16.5241 195.372 16.7571 195.216ZM16.5241 194.673L16.6401 194.751H16.5241V194.673ZM17.3391 198.866H17.2231V198.789L17.3391 198.711V198.866ZM13.4951 203.603C13.1461 203.526 13.2621 203.448 13.2621 203.37L13.9611 202.516C13.9611 202.982 13.8451 203.37 13.4951 203.603ZM12.9131 204.224L13.0301 204.147C13.0301 204.224 12.9131 204.224 12.9131 204.224ZM19.0861 193.042C19.0861 193.12 19.2031 193.12 19.2031 193.197C19.0861 193.275 18.9701 193.275 18.9701 193.353C18.8531 193.275 18.8531 193.197 18.8531 193.197C18.8531 193.12 18.9701 193.12 19.0861 193.042ZM20.3671 191.955C20.3671 192.266 20.2511 192.421 19.7851 192.576C19.9011 192.266 20.0181 192.11 20.3671 191.955ZM20.4841 195.527L20.6011 195.605H20.4841V195.527ZM21.0671 191.489C21.0671 191.411 21.1831 191.489 21.2991 191.489C21.1831 191.567 21.1831 191.567 21.0671 191.567C21.0671 191.645 20.9501 191.567 20.8331 191.567C20.9501 191.567 20.9501 191.489 21.0671 191.489ZM21.4161 191.023C21.4161 190.791 21.6481 190.713 21.9981 190.791L21.2991 191.333C21.4161 191.256 21.2991 191.101 21.4161 191.023ZM22.4641 190.169L25.2601 188.15C25.9581 187.684 26.7741 187.218 27.4731 186.675C27.7061 186.442 28.0551 186.442 28.5211 186.442C28.4041 186.208 28.4041 186.053 28.7541 185.821C29.3361 185.51 29.9181 185.121 30.6171 184.811C31.3161 184.423 31.7821 183.879 32.5971 183.568L33.2961 183.258C33.4131 183.18 33.6461 183.18 33.8781 183.18C33.7621 182.792 34.1121 182.714 34.5771 182.481C34.5771 182.946 34.1121 183.024 33.8781 183.18C33.4131 183.335 33.1801 183.646 32.5971 183.568V183.802C32.0151 184.189 31.4331 184.655 30.6171 184.811C30.6171 185.043 30.3841 185.199 30.1511 185.354C29.5691 185.665 28.8701 185.975 28.5211 186.442C27.8221 186.597 27.4731 187.062 26.8901 187.373L23.2791 190.013C22.8141 190.246 22.4641 190.48 22.1151 190.635C22.1151 190.402 22.2311 190.324 22.4641 190.169ZM36.3241 181.627V181.705C36.2081 181.783 36.0921 181.86 35.9751 182.015H35.8591C35.8591 181.937 35.7421 181.86 35.7421 181.86L36.3241 181.627ZM38.0711 180.695C38.0711 181.005 37.8391 181.005 37.6061 181.161C37.4891 180.927 37.7221 180.773 38.0711 180.695ZM39.5861 180.151C39.4691 180.151 39.4691 180.229 39.3531 180.229C39.2361 180.307 39.2361 180.307 39.1201 180.307C39.1201 179.996 39.3531 180.074 39.5861 180.151ZM40.5181 179.608C40.2841 179.919 39.9351 179.996 39.7021 180.074C39.7021 179.764 39.9351 179.686 40.5181 179.608ZM42.1481 178.909C42.7301 178.365 43.4301 177.977 44.3611 177.822C44.4781 177.589 44.7111 177.511 45.0601 177.511C44.8271 177.822 44.8271 177.822 44.3611 177.822C44.2451 177.9 44.2451 178.055 44.0121 178.132L42.1481 178.909C41.9151 178.986 41.6831 179.142 41.3321 179.297C41.5661 178.986 41.5661 178.986 42.1481 178.909ZM46.4571 176.735C46.5741 176.89 46.5741 177.045 46.3411 177.2L45.8751 177.434C45.7591 177.045 46.2251 176.967 46.4571 176.735ZM47.8551 176.268C48.2051 176.113 48.5541 176.036 49.0201 175.881C49.1371 176.036 48.9041 176.113 48.7871 176.191L47.2731 176.657C47.2731 176.502 47.5061 176.346 47.8551 176.268ZM50.1851 175.492C50.0681 175.57 50.0681 175.57 50.0681 175.648C50.0681 175.57 49.9521 175.57 49.9521 175.57C50.0681 175.57 50.0681 175.57 50.1851 175.492ZM50.8841 175.104H51.1171C51.1171 175.104 51.2331 175.181 51.1171 175.181C51.1171 175.259 51.0001 175.337 50.8841 175.337V175.104ZM52.8641 174.327H53.5621C53.9121 173.94 54.4941 173.94 55.0771 173.862C54.6111 174.094 54.1451 174.249 53.5621 174.327C53.3291 174.483 53.0971 174.405 52.8641 174.327C52.8641 174.483 52.8641 174.638 52.3981 174.716C52.6311 174.561 52.7471 174.483 52.8641 174.327ZM56.5911 173.162C56.9411 173.084 57.2901 173.007 57.6391 173.007C57.8721 173.162 57.6391 173.162 57.5231 173.162C57.1731 173.24 56.9411 173.162 56.5911 173.162C56.5911 173.396 56.4751 173.551 56.1251 173.629C56.0081 173.629 55.8921 173.629 55.6591 173.551C56.1251 173.396 56.3581 173.318 56.5911 173.162ZM59.7361 172.386V172.464V172.542H59.6191C59.6191 172.464 59.7361 172.464 59.7361 172.386ZM64.1611 171.299L64.2781 171.377H64.1611V171.299ZM69.0541 170.289H69.1701L69.0541 170.367H68.9371C68.9371 170.367 68.9371 170.289 69.0541 170.289ZM53.5621 149.245L53.4461 149.167H53.5621V149.245ZM53.0971 147.303L53.4461 146.372L53.7961 145.828C53.9121 145.595 54.1451 145.44 54.3781 145.362C54.3781 145.207 54.3781 145.13 54.4941 144.975C54.6111 145.13 54.6111 145.207 54.3781 145.362L54.0291 145.906C54.0291 146.14 53.6791 146.294 53.4461 146.372C53.4461 146.682 53.5621 146.994 53.0971 147.303ZM53.3291 144.197C53.3291 144.043 53.2131 143.887 53.5621 143.809V143.266C53.3291 143.421 53.2131 143.576 53.0971 143.809C51.9331 145.207 51.1171 146.76 50.6511 148.391C50.6511 148.546 50.5341 148.702 50.4181 148.935L50.1851 148.702C50.3011 148.157 50.5341 147.692 50.6511 147.226C50.8841 146.294 51.3501 145.44 51.9331 144.663C52.6311 143.732 53.2131 142.8 54.1451 142.024L54.4941 141.868C54.1451 142.334 53.7961 142.8 53.4461 143.343L53.5621 143.266C53.6791 143.188 53.7961 143.111 54.0291 143.033C54.1451 142.878 54.3781 142.722 54.7281 142.722C54.4941 142.956 54.2611 143.188 54.0291 143.343C53.9121 143.499 53.9121 143.732 53.5621 143.809C53.6791 143.965 53.4461 144.043 53.3291 144.197C53.2131 144.275 53.0971 144.353 53.0971 144.431C52.9801 144.275 53.0971 144.197 53.3291 144.197ZM52.7471 144.741C52.7471 144.663 52.7471 144.508 52.9801 144.508C53.0971 144.663 52.9801 144.741 52.7471 144.741ZM52.6311 145.13C52.5141 145.052 52.5141 144.897 52.7471 144.819C52.7471 144.975 52.7471 145.052 52.6311 145.13ZM52.2821 145.751C52.1651 145.518 52.2821 145.362 52.5141 145.285C52.5141 145.362 52.3981 145.518 52.2821 145.751ZM51.5821 146.916V146.838H51.6991L51.5821 146.916ZM55.5431 140.859C55.3091 141.169 55.1931 141.557 54.6111 141.713C54.7281 141.169 54.9601 141.014 55.5431 140.859ZM56.0081 140.237C56.1251 140.47 55.8921 140.625 55.6591 140.703C55.4261 140.47 55.7761 140.392 56.0081 140.237ZM57.0571 139.383C57.1731 139.228 57.2901 138.917 57.7561 138.84C57.6391 139.15 57.4061 139.305 57.0571 139.383C56.9411 139.772 56.5911 140.005 56.1251 140.16L57.0571 139.383ZM57.8721 139.383C57.9881 139.383 57.9881 139.383 57.9881 139.46L57.8721 139.538H57.7561C57.8721 139.46 57.8721 139.46 57.8721 139.383ZM58.1051 141.092C58.2211 141.092 58.2211 141.092 58.2211 141.169C58.2211 141.169 58.1051 141.169 58.1051 141.247C58.1051 141.247 57.9881 141.247 57.9881 141.169C58.1051 141.169 58.1051 141.169 58.1051 141.092ZM59.1531 138.373C59.1531 138.451 59.1531 138.451 59.2701 138.451L58.9201 138.684L58.8041 138.606L59.1531 138.373ZM60.2011 137.132L59.2701 137.753C59.5021 137.286 59.8521 137.208 60.2011 137.132ZM62.0651 136.276C62.0651 136.354 62.0651 136.354 62.1821 136.354L61.7151 136.665C61.5991 136.665 61.5991 136.588 61.4831 136.588C61.7151 136.51 61.8321 136.432 62.0651 136.276ZM57.4061 141.868V141.791H57.5231L57.4061 141.868ZM55.7761 141.092C55.8921 141.014 56.0081 140.937 56.2421 140.859C56.2421 141.247 56.0081 141.092 55.7761 141.092ZM55.3091 141.713C55.4261 141.479 55.5431 141.324 55.6591 141.169C55.7761 141.557 55.7761 141.557 55.3091 141.713ZM54.8441 142.256L55.3091 141.791C55.3091 142.024 55.1931 142.178 54.8441 142.256ZM56.1251 143.343C56.0081 143.343 55.8921 143.421 55.7761 143.421V143.965C55.6591 143.965 55.4261 144.043 55.4261 144.12C55.3091 144.275 55.0771 144.275 54.9601 144.197C55.0771 144.353 55.0771 144.508 54.8441 144.663C54.8441 144.819 54.7281 144.897 54.4941 144.897L54.8441 144.663C54.8441 144.508 54.9601 144.353 54.9601 144.197C55.1931 144.12 55.3091 143.809 55.7761 143.965C55.6591 143.732 55.5431 143.576 55.7761 143.421C55.8921 143.188 56.0081 143.033 56.4751 143.111L56.1251 143.343ZM63.9291 135.19V135.267H63.8121L63.9291 135.19ZM64.0451 134.646H64.1611L64.0451 134.724V134.646ZM66.7241 133.714H66.8411C66.8411 133.792 66.7241 133.792 66.7241 133.792H66.6081L66.7241 133.714ZM68.2381 133.171C68.3551 133.171 68.4711 133.248 68.4711 133.248C68.5881 133.016 68.5881 132.86 68.9371 132.705C68.8201 132.938 68.5881 133.094 68.4711 133.248H68.2381H68.1221L68.2381 133.171ZM70.2181 132.316C70.3351 132.316 70.4511 132.394 70.5681 132.394C70.2181 132.394 70.1011 132.549 69.7521 132.705C69.6361 132.394 69.8691 132.316 70.2181 132.316ZM71.1501 131.929L73.0141 131.385C73.3641 131.307 73.7131 131.307 74.0621 131.385C74.2951 131.152 74.2951 131.152 74.8771 131.229C74.8771 131.152 74.9941 130.997 74.9941 130.919H75.2271V130.997L74.8771 131.229C74.5281 131.229 74.2951 131.152 74.0621 131.385H73.0141C73.0141 131.54 72.8971 131.618 72.6641 131.695C72.1991 131.773 71.7321 131.929 71.3831 132.084C71.1501 132.162 70.9171 132.316 70.8011 132.394C70.8011 132.238 70.8011 132.006 71.1501 131.929ZM76.2751 130.686V130.763L76.1591 130.686H76.2751ZM261.742 200.333C261.742 200.667 261.617 201.002 261.241 201.253C261.367 200.918 261.367 200.584 261.742 200.333ZM261.742 190.309C261.617 190.476 261.491 190.726 261.241 190.81C261.241 190.644 261.367 190.393 261.742 190.309ZM262.995 197.828C262.995 197.995 262.995 198.162 262.745 198.328C262.87 198.162 262.87 197.995 262.995 197.828ZM263.998 195.99V196.323H263.873C263.747 196.323 263.747 196.323 263.747 196.24C263.873 196.156 263.873 196.072 263.998 195.99ZM264.749 194.486C264.749 194.82 264.498 195.154 264.248 195.405C264.374 195.07 264.374 194.737 264.749 194.486ZM266.003 192.147C266.003 192.481 266.003 192.732 265.626 193.065C265.501 192.648 265.752 192.397 266.003 192.147ZM266.504 191.311C266.504 191.479 266.504 191.562 266.378 191.646C266.378 191.562 266.504 191.479 266.504 191.311ZM268.383 187.97C268.508 187.886 268.508 187.803 268.633 187.886C268.633 187.97 268.508 187.97 268.508 187.97C268.508 188.053 268.383 188.053 268.383 188.053V187.97ZM269.636 186.132C269.636 186.216 269.51 186.383 269.385 186.466C269.385 186.3 269.51 186.216 269.636 186.132ZM270.388 184.879C270.513 185.297 270.262 185.464 269.886 185.547C270.012 185.38 270.137 185.13 270.388 184.879ZM272.267 182.123C272.267 182.373 272.142 182.623 271.766 182.874C271.641 182.456 271.892 182.289 272.267 182.123ZM272.768 181.287C272.643 181.37 272.643 181.537 272.518 181.621C272.643 181.454 272.643 181.37 272.768 181.287ZM273.019 180.87C273.019 180.953 272.894 181.037 272.768 181.12L273.019 180.87ZM273.144 180.619V180.535C273.27 180.619 273.27 180.619 273.27 180.703C273.144 180.703 273.144 180.786 273.019 180.786C273.019 180.703 273.019 180.703 273.144 180.619ZM275.4 177.528C275.4 177.361 275.525 177.194 275.65 177.11C275.65 177.277 275.525 177.361 275.4 177.528C275.274 177.862 275.024 178.28 274.647 178.447C274.773 178.112 275.024 177.779 275.4 177.528ZM276.277 176.526C276.151 176.693 276.026 176.943 275.65 177.026C275.776 176.776 275.901 176.609 276.277 176.526ZM277.279 174.771C277.279 174.938 277.154 175.105 277.029 175.189C277.029 175.022 277.154 174.938 277.279 174.771ZM278.156 173.519C278.156 173.435 278.282 173.435 278.282 173.519V173.601C278.156 173.601 278.156 173.601 278.031 173.685C278.031 173.601 278.156 173.601 278.156 173.519ZM279.284 172.015V172.098C279.284 172.098 279.158 172.098 279.158 172.182C279.158 172.098 279.284 172.015 279.284 172.015ZM351.715 192.136C350.963 191.885 335.583 195.453 333.37 196.036C328.953 197.2 318.235 200.333 307.038 205.679C304.408 206.935 301.65 208.269 299.019 209.606C297.891 210.107 296.889 210.692 295.761 211.193L293.38 212.195C293.255 212.279 293.005 212.363 292.754 212.446C292.504 212.446 292.128 212.363 292.128 212.195C292.128 211.862 292.128 211.527 292.253 211.193C292.879 210.107 293.255 208.937 294.383 207.935C294.633 207.851 294.633 207.769 294.633 207.685C294.758 207.016 295.26 206.516 295.886 205.93C296.012 205.513 296.387 205.011 296.889 204.677C296.889 204.176 297.39 203.758 297.766 203.425C298.017 202.839 298.392 202.255 299.144 201.837H299.395C299.269 201.837 299.269 201.837 299.144 201.753C299.144 201.67 299.269 201.586 299.395 201.419C299.645 201.169 299.771 200.918 299.896 200.667C300.523 200 301.149 199.331 301.525 198.663C301.901 198.328 302.152 198.078 302.652 197.828C302.652 197.66 302.778 197.577 303.028 197.409H302.778C302.778 197.326 302.903 197.159 303.028 197.076C303.53 196.407 304.031 195.739 304.657 195.07C305.534 194.068 306.286 193.065 306.787 192.063C307.414 191.061 307.164 190.726 305.785 190.226C305.284 190.309 305.033 190.56 304.782 190.726C304.022 191.36 303.306 192.007 302.604 192.655C302.524 192.702 302.455 192.732 302.362 192.794L301.986 193.045C299.731 194.382 297.726 195.968 295.471 197.389C293.341 198.892 291.017 200.324 288.556 202.025C288.556 202.025 278.78 207.977 268.296 212.04C266.266 212.827 257.983 215.537 257.607 215.704C257.231 215.871 257.231 215.871 256.479 215.537H256.605C256.479 214.952 256.605 214.367 256.981 213.866C257.106 212.53 257.607 211.277 258.36 210.107C258.36 209.606 258.484 209.188 258.735 208.687C259.236 207.434 259.863 206.097 260.489 204.844C260.615 204.593 260.615 204.26 260.991 204.009C261.116 203.925 261.241 203.758 261.241 203.591V203.675C261.241 203.258 261.491 202.923 261.742 202.589C261.742 202.339 261.868 202.088 261.993 201.921C261.993 201.503 262.243 201.169 262.494 200.835C262.619 200.333 262.87 199.832 263.246 199.414C263.246 199.248 263.371 199.164 263.496 198.997C263.496 198.495 263.873 197.995 264.248 197.493C264.248 196.825 264.749 196.24 265.251 195.656C265.376 195.488 265.376 195.237 265.501 195.07L265.752 194.653C266.378 192.898 267.506 191.228 268.508 189.64C268.633 189.307 268.884 189.056 269.01 188.805C269.135 188.638 269.26 188.472 269.26 188.388C269.51 187.803 269.762 187.218 270.262 186.717C270.889 185.547 271.515 184.461 272.392 183.375C272.518 183.125 272.643 182.874 272.894 182.707C273.019 182.54 273.019 182.373 273.144 182.289C273.52 181.287 274.272 180.368 275.024 179.533C275.024 179.449 275.149 179.282 275.274 179.115V179.198C275.4 179.031 275.525 178.865 275.525 178.698V178.781C275.65 178.363 275.901 177.945 276.402 177.695C276.402 177.528 276.527 177.445 276.527 177.361C277.029 176.693 277.154 175.94 277.906 175.356C278.156 174.854 278.407 174.354 279.034 173.936C279.034 173.768 279.034 173.601 279.284 173.519C279.409 173.101 279.659 172.766 280.036 172.433C280.161 172.182 280.286 172.015 280.662 171.847C280.662 171.68 280.787 171.596 280.913 171.43C280.913 171.263 281.038 171.179 281.163 171.012H281.038C281.664 169.926 282.417 168.757 283.544 167.838C283.92 166.919 284.672 166.166 285.298 165.332C285.799 164.747 286.05 164.162 286.802 163.661C286.927 163.577 287.178 163.41 287.303 163.243H287.428C287.303 163.243 287.303 163.159 287.303 163.076C287.303 162.909 287.428 162.742 287.553 162.659L287.929 162.408C288.055 161.906 288.305 161.322 288.932 160.987C289.057 160.57 289.308 160.236 289.684 159.901C289.684 159.818 289.684 159.734 289.809 159.734C290.56 158.732 291.312 157.646 292.44 156.727C292.69 156.56 292.816 156.393 292.942 156.143H293.067C293.067 156.059 292.942 156.059 292.942 155.976C293.567 155.307 294.319 154.722 294.696 153.971C294.821 153.553 295.197 153.302 295.697 153.052V152.801C295.823 152.55 295.949 152.299 296.199 152.216C296.825 151.715 297.327 151.297 297.577 150.713C297.577 150.546 297.828 150.462 297.954 150.295H297.828C298.204 149.961 298.455 149.627 298.705 149.292C299.206 148.708 299.707 148.206 300.334 147.789V147.622H300.709V147.538C301.086 147.12 301.461 146.703 301.712 146.202C302.088 145.951 301.963 145.617 301.712 145.283C301.211 144.615 300.334 144.197 299.707 143.695C299.081 143.362 298.455 143.362 297.954 143.779C297.452 144.113 296.951 144.448 296.575 144.865L289.057 152.299C287.303 154.054 285.674 155.808 284.17 157.646L278.783 163.661C277.029 165.917 275.149 168.172 273.27 170.344C272.768 170.929 272.267 171.43 271.892 172.015C271.39 172.599 270.889 173.184 270.513 173.685L267.756 176.943C266.003 179.115 264.374 181.287 262.494 183.375C260.239 186.049 257.858 188.722 255.477 191.395C254.6 192.397 253.598 193.4 252.721 194.486C252.094 194.986 251.969 194.986 250.967 194.82C250.09 194.653 249.212 194.486 248.336 194.486C245.329 194.319 242.697 194.986 240.317 196.156C239.565 196.518 238.886 196.927 238.236 197.354C238.177 197.317 238.138 197.284 238.06 197.242C237.308 196.825 237.182 196.825 236.43 197.242C236.305 197.326 236.18 197.409 235.929 197.493C233.799 198.663 231.92 200 229.915 201.253C227.785 202.589 225.655 203.925 223.65 205.346C221.771 206.516 219.891 207.769 218.012 209.021C215.882 210.441 213.752 211.945 211.747 213.365L210.619 213.95C210.369 214.117 210.369 214.117 209.742 213.783H209.867C209.867 213.281 209.993 212.78 210.369 212.363C210.619 211.193 211.121 210.107 211.998 209.021C211.998 208.604 212.248 208.186 212.499 207.851L214.378 204.427C214.504 204.176 214.629 203.925 215.005 203.758C215.13 203.675 215.13 203.508 215.255 203.425C215.38 203.09 215.506 202.756 215.882 202.505H215.756C215.882 202.255 215.882 202.088 216.133 201.921C216.133 201.586 216.383 201.253 216.633 201.002C216.884 200.5 217.135 200.083 217.511 199.665V199.749C217.511 199.581 217.636 199.498 217.761 199.414C217.761 198.914 218.138 198.495 218.638 198.078C218.638 197.493 219.14 196.909 219.641 196.491C219.766 196.323 219.766 196.156 219.891 195.906C220.017 195.823 220.142 195.656 220.142 195.572L219.516 195.321L219.641 194.986C219.891 194.569 220.142 194.235 220.267 193.818V194.151C220.643 193.9 220.768 193.651 220.768 193.4L220.392 193.734C220.518 193.483 220.643 193.316 220.894 193.065C221.771 192.063 222.272 190.893 222.898 189.724C223.274 188.889 223.024 188.304 221.896 187.803C221.645 187.636 221.395 187.552 221.019 187.386C220.392 187.135 220.017 187.135 219.39 187.469C218.889 187.719 218.388 188.053 218.012 188.388C215.882 189.724 214.128 191.395 212.123 192.816V192.898L211.621 192.732C210.745 193.651 209.742 194.486 208.865 195.405C208.239 195.906 208.114 195.906 207.361 195.739C206.61 195.572 205.858 195.405 205.106 195.405C203.95 195.369 202.893 195.475 201.876 195.657C201.737 195.632 201.582 195.627 201.424 195.627C201.048 195.711 200.546 195.711 200.17 195.794C199.043 196.045 197.915 196.296 196.787 196.629C193.905 197.465 191.024 198.217 188.267 199.22C187.891 199.303 187.641 199.387 187.265 199.553C184.759 200.222 182.378 200.973 180.123 201.809C177.867 202.728 175.487 203.48 173.231 204.231C172.856 204.399 172.355 204.482 171.853 204.65C170.851 204.817 170.475 204.65 170.725 203.981L171.477 202.478C171.853 201.642 172.355 200.806 172.73 200.055C173.229 199.191 173.638 198.07 172.993 196.859C172.2 195.369 171.261 195.68 169.953 195.993C167.035 196.691 162.735 197.737 159.978 198.739C159.603 198.823 159.352 198.906 158.976 199.073C156.47 199.741 154.089 200.493 151.834 201.328C149.579 202.248 147.198 202.999 144.942 203.751C144.567 203.918 144.065 204.002 143.565 204.169C142.562 204.336 142.186 204.169 142.436 203.5L143.189 201.997C143.565 201.162 144.065 200.326 144.442 199.574C145.068 198.488 144.567 197.653 143.565 196.901C143.189 196.567 142.687 196.316 142.186 195.982C141.56 195.648 140.683 195.481 139.806 195.648L138.803 195.898C137.049 196.483 135.295 196.984 133.666 197.653C130.032 198.99 126.524 200.493 123.016 202.164C119.883 203.584 116.75 205.171 113.743 206.758L110.737 208.262C110.361 208.429 110.236 208.429 109.609 208.095C109.734 207.677 110.236 207.427 110.486 207.092C110.486 206.925 110.486 206.758 110.737 206.591C111.363 206.006 111.99 205.422 112.365 204.753V204.67C112.491 204.586 112.616 204.419 112.741 204.336L113.368 203.667C113.619 203.416 113.743 203.167 113.995 202.832C114.246 202.498 114.37 202.164 114.621 201.83C115.373 200.827 115.122 199.909 113.995 199.073C113.368 198.572 112.491 198.154 111.739 197.653C111.489 197.569 111.238 197.486 110.988 197.486C110.11 197.151 109.234 197.402 108.482 197.653C106.727 198.154 104.973 198.739 103.219 199.323C100.337 200.326 83.2121 207.594 80.7061 208.513C79.9531 208.799 73.5711 211.36 71.2121 212.244C71.0161 212.315 70.8091 212.391 70.6031 212.465C70.5231 212.493 70.4471 212.519 70.4031 212.531L70.4071 212.536C61.3191 215.818 42.9991 221.622 38.6531 223.118C36.3221 223.921 31.6461 225.106 28.8761 225.491C25.8681 225.909 22.6911 225.775 19.6681 225.58C16.6221 225.383 15.0021 224.919 12.5431 223.762C11.8451 223.374 10.9341 223.016 10.5841 222.473C10.2351 221.929 9.88511 221.464 9.41911 220.997C9.18611 220.686 9.30211 220.299 9.18611 219.988C8.72011 218.591 8.48713 217.193 8.60313 215.718C8.60313 215.407 8.60313 215.096 8.48713 214.708C8.48713 214.863 8.37114 214.94 8.37114 215.096C8.37114 215.562 8.25413 216.105 8.25413 216.65C8.25413 216.882 8.25414 217.193 8.13814 217.426C7.90514 217.426 7.90513 217.348 7.90513 217.193C7.78813 216.65 7.78813 216.028 7.90513 215.407C8.02113 213.543 8.48714 211.756 9.30214 209.97C9.76814 208.805 10.3511 207.564 11.1661 206.476C11.6321 205.932 11.9811 205.311 12.3311 204.768C12.4471 204.691 12.5641 204.691 12.6801 204.768L11.2831 206.942C11.1661 207.175 11.1661 207.33 11.1661 207.564C11.2831 207.564 11.2831 207.564 11.2831 207.486C12.0981 206.243 12.6801 205.001 13.8451 203.836V203.759C14.5441 202.594 15.5921 201.429 16.5241 200.342C17.3391 199.41 18.0381 198.478 19.0861 197.624C20.6011 195.915 22.4641 194.362 24.3281 192.886C25.7251 191.722 27.3561 190.635 28.8701 189.548C29.5691 189.004 30.3841 188.538 31.2001 187.994C31.8981 187.607 32.5971 187.14 33.2961 186.675C33.9951 186.286 34.5771 185.665 35.5091 185.432C35.6251 185.432 35.7421 185.354 35.7421 185.277C36.4411 184.655 37.4891 184.267 38.3051 183.802C39.8191 183.024 41.3321 182.248 42.8471 181.471L43.1961 181.316C43.5461 181.316 43.7791 181.083 44.1281 181.005C44.9431 180.54 45.6421 180.151 46.5741 179.841C47.8551 179.297 49.1371 178.986 50.3011 178.365C50.6511 178.132 51.0001 177.977 51.4661 177.822L55.0771 176.58C56.3581 176.191 57.6391 175.803 58.9201 175.337C59.5021 175.104 60.0851 175.104 60.7841 174.871C61.4831 174.716 62.0651 174.483 62.7641 174.249C63.2301 174.172 63.6951 174.172 64.1611 174.016C65.0931 173.629 66.2581 173.473 67.3061 173.24C68.4711 172.93 69.6361 172.619 70.9171 172.464C71.9651 172.308 73.0141 172.153 74.0621 171.921C76.0421 171.61 78.0221 171.454 79.8861 171.221C80.2351 171.143 80.4681 171.221 80.8181 171.143C81.8661 171.143 82.9141 171.143 83.7291 170.678C83.7291 170.289 83.7291 169.979 83.6131 169.668C83.2631 169.513 82.9141 169.28 82.6811 169.124C81.7491 168.659 80.8181 168.193 79.6531 167.883C78.4881 167.572 77.3231 167.183 76.2751 166.718L71.7321 165.086C68.7051 163.922 65.6761 162.835 62.7641 161.515C61.2501 160.738 59.8521 159.962 58.5711 159.107C57.4061 158.331 56.3581 157.554 55.6591 156.545C55.0771 155.846 54.6111 155.07 54.2611 154.292C54.0291 153.827 53.9121 153.361 53.7961 152.895C53.6791 152.273 53.7961 151.73 53.6791 151.108C53.6791 150.565 53.6791 150.022 53.9121 149.478L54.6111 147.615C54.2611 147.615 54.2611 147.77 54.1451 147.925C54.0291 148.157 54.0291 148.469 53.5621 148.702C53.5621 148.469 53.6791 148.391 53.6791 148.235C54.1451 146.916 54.9601 145.595 55.8921 144.431C57.9881 141.868 60.6671 139.694 63.8121 137.753L64.5101 137.519H64.3951C64.5101 137.286 64.7441 137.208 65.0931 137.208C65.0931 137.132 65.2101 137.132 65.2101 137.132C65.3261 136.821 65.6761 136.665 66.0251 136.51H65.9091C66.1421 136.432 66.3741 136.432 66.4911 136.354L67.1901 135.966C67.4231 135.889 67.6561 135.889 67.7731 135.811C68.2381 135.811 68.5881 135.578 68.9371 135.422C70.8011 134.569 72.7811 133.792 74.9941 133.171C77.6731 132.472 80.3501 131.998 83.1471 132.006C89.2491 132.024 93.0641 134.368 95.5321 138.451C96.0091 139.241 96.3481 140.159 96.5801 141.013C96.8131 142.1 97.2791 143.188 97.2791 144.353V146.45C97.2791 146.682 97.2791 146.915 97.3951 147.07C97.7451 147.459 97.6281 147.925 97.2791 148.235C96.8131 148.934 97.1631 149.478 97.2791 150.099C97.3951 150.177 97.5121 150.254 97.6281 150.254L98.0951 150.177C98.2111 150.099 98.2111 149.944 98.3271 149.866C98.6761 149.322 98.7931 148.701 99.0261 148.157C99.2591 147.459 99.4921 146.759 99.4921 146.061C99.3761 145.362 99.3761 144.663 99.3761 143.964C99.2591 142.411 98.4471 141.086 97.9781 139.538C96.7871 135.609 93.9291 133.027 90.6271 131.381C89.3301 130.733 85.8261 129.91 84.4281 129.832C81.7491 129.676 79.0701 129.754 76.5081 130.143C73.7131 130.53 71.1501 131.229 68.7051 132.084C66.3741 132.938 64.3951 134.025 62.4141 135.113C61.5991 135.578 60.7841 136.044 60.0851 136.588C58.5711 137.675 56.9411 138.762 55.6591 140.005C54.6111 141.014 53.5621 141.946 52.7471 142.956C51.1171 144.975 50.0681 147.071 49.7191 149.322C49.4861 150.954 49.9521 152.584 50.6511 154.137C51.2331 155.224 52.1651 156.234 53.0971 157.166C54.6111 158.486 56.2421 159.651 57.9881 160.738C61.0171 162.524 64.3951 164 67.8891 165.397L70.3351 166.329C71.9651 166.951 73.3641 167.649 75.1111 168.115C75.2271 168.193 75.3431 168.348 75.5761 168.426C75.4601 168.503 75.4601 168.581 75.3431 168.581C75.2271 168.659 74.9941 168.737 74.8771 168.737L72.5481 168.97C70.9171 169.28 69.2871 169.513 67.6561 169.824C65.7921 170.212 63.9291 170.6 62.0651 171.065C61.3661 171.143 60.7841 171.299 60.2011 171.454C58.4551 171.997 56.7071 172.464 55.0771 173.007C53.9121 173.318 52.8641 173.629 51.8151 174.016C50.0681 174.638 48.3211 175.337 46.5741 176.036C45.9921 176.191 45.5261 176.346 45.0601 176.58C42.6141 177.745 40.1681 178.676 37.9551 179.919C37.9551 179.996 37.8391 179.996 37.7221 179.996C35.9751 180.695 34.3441 181.705 32.7141 182.559C31.7821 183.102 30.6171 183.568 29.8021 184.267C29.6851 184.345 29.5691 184.423 29.4531 184.423C28.7541 184.811 28.0551 185.277 27.4731 185.743L27.0071 185.975C26.1911 186.442 25.4921 186.907 24.7941 187.451L22.4641 189.159C22.2311 189.237 21.9981 189.392 21.8821 189.548C21.0671 190.324 19.9011 191.023 18.9701 191.8C17.4561 193.12 15.9421 194.44 14.6611 195.838C13.0301 197.546 11.3991 199.254 10.0021 201.118C9.30212 201.972 8.60313 202.904 8.02113 203.759C7.09013 205.389 6.15812 206.942 5.34212 208.573C4.76012 209.97 4.41111 211.369 4.06111 212.766C3.71211 214.242 3.59514 215.794 3.82814 217.348C4.06114 219.289 4.87612 221.075 6.50712 222.706C7.32212 223.405 8.25514 224.323 9.30214 224.867C11.3521 226.009 13.0311 226.406 15.0111 226.949C16.1761 227.26 17.3411 227.493 18.6221 227.649C20.1361 227.804 21.7661 227.959 23.5131 228.036C25.8431 228.114 31.5111 227.619 36.0291 226.505C46.4441 223.937 61.3091 218.693 72.0791 214.774C72.8311 214.524 92.8191 207.26 95.8271 206.174C99.0841 205.004 102.217 203.751 105.349 202.498C105.725 202.33 106.227 202.248 106.602 202.081C106.852 201.997 107.229 201.83 107.479 202.081C107.604 202.248 107.479 202.414 107.353 202.581C107.103 202.832 106.852 203.083 106.602 203.416C105.224 204.92 104.221 206.508 103.219 208.178C102.968 208.597 102.843 209.014 102.718 209.348C102.091 210.685 104.973 213.274 106.852 213.441C107.855 213.525 108.857 213.525 109.859 213.274C111.614 212.773 113.118 212.021 114.621 211.186L117.127 209.932C117.377 209.849 117.503 209.683 117.753 209.515C118.38 209.348 118.756 209.014 119.257 208.68V208.513C119.758 208.262 120.134 208.095 120.51 207.844C120.635 207.76 120.76 207.76 120.886 207.677V207.844C121.011 207.76 121.137 207.76 121.137 207.677H121.262C121.512 207.511 121.762 207.343 122.139 207.26C122.264 207.176 122.389 207.092 122.389 207.009H122.139C122.264 206.925 122.389 206.925 122.389 206.842H122.514V207.009C122.514 206.925 122.64 206.925 122.765 206.842L123.392 206.591C123.517 206.508 123.643 206.508 123.643 206.425H123.392C123.517 206.341 123.643 206.257 123.643 206.174H123.767V206.425C123.767 206.341 123.893 206.257 124.018 206.174C124.269 206.006 124.645 205.923 124.895 205.756H125.02C125.02 205.672 125.146 205.672 125.271 205.588H125.02C125.02 205.505 125.146 205.422 125.271 205.339C125.396 205.255 125.522 205.255 125.522 205.171C125.647 205.171 125.647 205.255 125.647 205.339V205.171C125.772 205.088 126.023 205.004 126.149 204.92H126.524C126.9 204.753 127.401 204.502 127.777 204.336L129.656 203.25C129.781 203.167 129.907 203.083 130.032 203.083C130.659 202.748 131.16 202.498 131.786 202.248H132.163C132.663 201.997 133.04 201.83 133.415 201.579L135.796 200.576C136.673 200.242 137.425 199.992 138.302 199.741C138.427 199.658 138.553 199.658 138.678 199.741C138.803 199.825 138.803 199.909 138.803 199.992L138.051 201.83C137.801 202.414 137.926 203.083 138.177 203.667C138.427 204.502 139.054 205.171 139.806 205.839C140.808 206.842 142.312 207.343 144.191 207.427C146.196 207.427 148.075 207.009 149.829 206.341C152.962 205.171 156.094 203.918 159.101 202.498C159.352 202.414 159.603 202.248 159.728 202.164C162.511 201.182 165.246 200.204 168.026 199.268C168.072 199.328 168.089 199.388 168.089 199.447C168.089 199.447 167.11 201.265 166.838 201.913C166.58 202.529 166.35 203.25 166.494 204.148C166.631 205.009 167.343 205.652 168.094 206.32C169.097 207.322 170.601 207.824 172.48 207.908C174.485 207.908 176.364 207.49 178.118 206.822C181.25 205.652 184.383 204.399 187.39 202.978C187.641 202.895 187.891 202.728 188.017 202.645C189.289 202.196 190.538 201.741 191.782 201.284C191.546 201.563 191.31 201.856 191.073 202.172C190.697 202.756 190.447 203.341 190.321 204.093C190.196 204.427 190.196 204.761 190.447 205.011C191.073 205.93 191.95 206.683 193.454 207.016C194.205 207.183 194.832 207.183 195.583 207.1C196.586 206.933 197.588 206.683 198.466 206.348C202.475 204.844 205.858 202.839 208.74 200.5C208.865 200.417 208.865 200.333 208.991 200.333H208.74L208.991 200.083C209.116 200.083 209.241 200 209.241 199.916C209.492 199.749 209.617 199.581 209.742 199.414H209.867C209.867 199.331 209.993 199.248 210.118 199.248V199.414C210.243 199.331 210.243 199.248 210.369 199.248V199.164C210.619 199.164 210.995 199.164 210.995 199.414V200.417C210.995 200.751 210.995 201.002 211.496 201.086C211.621 201.169 211.747 201.253 211.621 201.419C211.621 201.586 211.496 201.837 211.371 202.004C210.87 202.923 210.369 203.758 209.993 204.677C208.614 207.183 207.111 209.69 206.234 212.279C205.984 212.948 205.858 213.532 205.858 214.201C205.858 214.952 206.234 215.453 206.986 215.871L207.612 216.122C208.614 216.706 209.742 216.706 210.87 216.372C211.496 216.122 212.123 215.871 212.624 215.537C214.754 214.283 216.884 212.948 218.763 211.444C220.142 210.525 221.395 209.606 222.648 208.604C224.778 207.1 226.908 205.597 228.912 204.093C229.288 203.925 229.664 203.758 229.79 203.425C229.163 203.591 228.787 203.925 228.411 204.26C228.036 204.427 227.785 204.761 227.284 204.844C227.159 204.928 227.159 205.011 227.033 205.011C226.908 205.095 226.908 205.178 226.782 205.178C226.782 205.095 226.908 205.095 227.033 205.011C227.033 204.928 227.159 204.844 227.284 204.844C227.409 204.677 227.535 204.511 227.659 204.427C229.539 203.174 231.418 202.004 233.173 200.751L233.924 200.5C233.924 200.417 234.05 200.333 234.175 200.333C234.175 200.25 234.3 200.167 234.426 200.167L234.676 199.916C234.802 199.916 234.927 199.832 234.927 199.749V199.916C234.999 199.904 235.055 199.887 235.117 199.872C235.015 199.971 234.904 200.067 234.803 200.167C234.177 200.835 233.801 201.503 233.3 202.172C232.924 202.839 232.673 203.591 232.673 204.344C232.673 204.761 232.673 205.178 233.049 205.513C233.801 206.599 235.054 207.35 236.809 207.769C237.56 208.019 238.437 208.019 239.189 207.851C240.442 207.685 241.444 207.434 242.446 207.016C246.832 205.346 250.34 203.007 253.348 200.333V200.25C253.348 200.25 253.472 200.167 253.598 200.083H253.348C253.348 200 253.472 199.916 253.598 199.832C253.723 199.832 253.723 199.749 253.849 199.665C254.099 199.414 254.224 199.248 254.35 198.997C254.475 198.997 254.6 198.914 254.725 198.83V198.997L254.976 198.83C255.352 198.746 255.728 198.83 255.728 199.081C255.854 199.498 255.854 199.832 255.854 200.25C255.979 200.584 255.979 200.835 256.605 201.002C256.856 201.002 256.856 201.169 256.856 201.336C256.73 201.586 256.73 201.837 256.605 202.004C256.229 203.09 255.728 204.093 255.352 205.095C254.224 207.935 252.846 210.776 252.22 213.783C252.094 214.534 251.969 215.286 252.094 216.038C252.22 216.874 252.721 217.541 253.723 217.96C253.974 218.043 254.099 218.127 254.35 218.294C255.603 218.878 256.925 218.786 258.234 218.461C259.455 218.158 265.027 216.214 267.678 215.17C284.024 208.729 294.97 200.647 294.97 200.647C295.045 200.597 295.132 200.536 295.219 200.471C295.025 200.706 294.827 200.932 294.633 201.169C293.13 202.839 291.626 204.593 290.499 206.348C290.248 206.933 289.872 207.434 289.371 207.935C288.494 209.105 288.243 210.441 287.993 211.694C287.742 212.697 288.243 213.448 289.371 213.95L289.997 214.201C290.624 214.618 291.376 214.702 292.378 214.618C293.255 214.534 293.882 214.283 294.633 214.034C296.262 213.448 297.766 212.78 299.269 212.029C304.156 209.606 312.928 204.684 321.134 201.881C339.531 195.598 344.917 194.513 351.589 193.222C351.715 193.138 351.84 193.055 351.84 192.971C351.966 192.72 352.091 192.553 352.091 192.303L351.715 192.136Z" fill="white"/>
<path d="M139.242 227.205V239.378H140.053V233.486H147.481V239.378H148.292V227.205H147.481V232.726H140.053V227.205H139.242Z" fill="white"/>
<path d="M156.985 233.318C156.985 229.942 158.758 227.662 161.425 227.662C164.227 227.662 166.017 229.942 166.017 233.486C166.017 234.87 165.376 239.041 161.425 239.041C158.825 239.041 156.985 236.678 156.985 233.318ZM166.86 233.435C166.86 229.587 164.649 226.903 161.493 226.903C158.335 226.903 156.123 229.57 156.123 233.335C156.123 237.082 158.368 239.783 161.493 239.783C164.598 239.783 166.86 237.116 166.86 233.435Z" fill="white"/>
<path d="M185.748 239.379V227.206H184.365L180.092 237.808L175.839 227.206H174.438V239.379H175.248V227.831L179.908 239.379H180.296L184.922 227.747V239.379H185.748Z" fill="white"/>
<path d="M200.924 227.965L201.278 227.205H194.07V239.378H201.38L201.092 238.619H194.881V233.504H200.216V232.744H194.881V227.965H200.924Z" fill="white"/>
<path d="M213.093 238.991C210.324 238.991 209.464 237.032 209.125 236.103L208.432 236.644C208.737 237.522 210.122 239.767 213.042 239.767C215.626 239.767 217.397 238.315 217.397 236.172C217.397 234.111 215.642 233.252 213.295 232.406C210.814 231.528 210.037 230.905 210.037 229.857C210.037 228.507 211.167 227.645 212.958 227.645C215.034 227.645 215.928 229.267 216.267 229.908L216.841 229.114C216.132 228.17 215.187 226.936 212.873 226.936C210.577 226.936 209.176 228.035 209.176 229.824C209.176 231.899 211.286 232.643 212.924 233.217C214.815 233.875 216.521 234.653 216.521 236.273C216.521 237.876 215.101 238.991 213.093 238.991Z" fill="white"/>
<path d="M177.898 159.397H183.126L180.604 150.969C182.091 150.056 183.086 148.421 183.086 146.549C183.086 143.684 180.763 141.361 177.898 141.361C175.033 141.361 172.71 143.684 172.71 146.549C172.71 148.421 173.705 150.056 175.192 150.969L172.67 159.397H177.898Z" fill="white"/>
</g>
</svg>
